<svg width="146px" height="50px" viewBox="0 0 146 50" version="1.1" xmlns="http://www.w3.org/2000/svg" xmlns:xlink="http://www.w3.org/1999/xlink">
    <g id="main" stroke="none" stroke-width="1" fill="none" fill-rule="evenodd">
        <g id="m_main" transform="translate(-15.000000, -25.000000)" fill="#FFFFFF">
            <g id="screen">
                <g id="top" transform="translate(15.000000, 25.000000)">
                    <path d="M21.6863428,18.6088131 C21.6863428,21.2925461 23.8637266,23.4666437 26.5477335,23.4666437 C29.2325619,23.4666437 31.407481,21.2925461 31.407481,18.6088131 C31.407481,15.9272708 29.2325619,13.7528994 26.5477335,13.7528994 C23.8637266,13.7528994 21.6863428,15.9272708 21.6863428,18.6088131 Z M29.4732763,1.20316133 L51.9339309,23.6640897 C53.5384198,25.268031 53.5384198,27.8690612 51.9339309,29.4732763 L31.407481,50 L31.407481,33.3397688 C34.6906724,32.5990037 37.7791562,31.1100796 40.4166085,28.9721303 C40.5165638,28.8913444 40.616793,28.8102847 40.7170223,28.7264865 C41.5152959,28.0582918 42.0216451,27.0570951 42.0216451,25.9354042 C42.0216451,23.9239737 40.3927835,22.2962074 38.381353,22.2962074 C37.4875056,22.2962074 36.6678716,22.6204462 36.0325389,23.1574667 C33.3846803,25.3699033 30.024537,26.5923711 26.5660814,26.5923711 C23.092838,26.5923711 19.7187283,25.3641524 17.0730605,23.1278908 C16.4443002,22.609766 15.6364418,22.2962074 14.7560131,22.2962074 C12.7448564,22.2962074 11.1154471,23.9239737 11.1154471,25.9354042 C11.1154471,27.035187 11.6056391,28.0205004 12.3770754,28.6886952 L12.7128159,28.9721303 C15.3412312,31.1024118 18.4187609,32.5883236 21.6863428,33.3304579 L21.6863428,49.9564578 L1.20316133,29.4732763 C-0.401053776,27.8690612 -0.401053776,25.268031 1.20316133,23.6640897 L23.6640897,1.20316133 C25.268031,-0.401053776 27.8690612,-0.401053776 29.4732763,1.20316133 Z M78.6752306,8.31850434 L78.6752306,22.6627835 L75.4536556,22.6627835 L75.4536556,10.9167961 L71.397111,10.9167961 L71.1320239,15.914838 C70.9641536,18.3189699 70.5021682,20.0442268 69.7466152,21.0919781 C68.9910622,22.1391817 67.8354139,22.6627835 66.2799441,22.6627835 L65.2855936,22.6627835 L65.2724488,19.9848013 L65.9354404,19.9182557 C66.6425219,19.8213127 67.1568128,19.3905461 67.4796823,18.6259561 C67.802278,17.8616399 68.0076657,16.467468 68.0961194,14.4431665 L68.3614803,8.31850434 L78.6752306,8.31850434 Z M91.0573175,8.31850434 L94.2654739,8.31850434 L94.2654739,22.6627835 L91.0573175,22.6627835 L91.0573175,13.0911675 L85.4365399,22.6627835 L82.2281097,22.6627835 L82.2281097,8.31850434 L85.4365399,8.31850434 L85.4365399,17.8901203 L91.0573175,8.31850434 Z M109.842545,22.6627287 L106.62097,22.6627287 L106.62097,16.8694254 L101.039627,16.8694254 L101.039627,22.6627287 L97.8183256,22.6627287 L97.8183256,8.31844957 L101.039627,8.31844957 L101.039627,14.2974233 L106.62097,14.2974233 L106.62097,8.31844957 L109.842545,8.31844957 L109.842545,22.6627287 Z M122.224659,8.31850434 L125.432816,8.31850434 L125.432816,22.6627835 L122.224659,22.6627835 L122.224659,13.0911675 L116.603608,22.6627835 L113.395451,22.6627835 L113.395451,8.31850434 L116.603608,8.31850434 L116.603608,17.8901203 L122.224659,8.31850434 Z M132.253249,14.4500127 C132.699625,14.8257354 133.271972,15.0133228 133.970291,15.0133228 L137.138739,15.0133228 L137.138739,10.8773616 L134.169106,10.8773616 C133.382334,10.8773616 132.754943,11.0759031 132.286385,11.4735337 C131.817827,11.8717121 131.583959,12.375049 131.583959,12.9851874 C131.583959,13.586015 131.806873,14.074564 132.253249,14.4500127 Z M140.346895,8.31850434 L140.346895,22.6627835 L137.138739,22.6627835 L137.138739,17.3996544 L134.129398,17.3996544 L131.06693,22.6627835 L127.72623,22.6627835 L131.106912,16.8694802 C130.222923,16.4981392 129.544596,15.967965 129.071656,15.2784099 C128.598991,14.5891287 128.362384,13.798249 128.362384,12.905497 C128.362384,11.5710244 128.877223,10.4775402 129.9069,9.62449646 C130.936577,8.77145275 132.326367,8.33630461 134.076545,8.31850434 L140.346895,8.31850434 Z M78.8789752,39.6254002 L77.1687801,39.6254002 L77.1687801,45.3924138 L73.947205,45.3924138 L73.947205,39.6254002 L72.2504285,39.6254002 L68.9494369,45.3924138 L64.9985985,45.3924138 L69.7581169,37.9286237 L65.2505408,31.0481347 L69.1879605,31.0481347 L72.436099,36.6823309 L73.947205,36.6823309 L73.947205,31.0481347 L77.1687801,31.0481347 L77.1687801,36.6823309 L78.6933047,36.6823309 L81.9543142,31.0481347 L85.8917339,31.0481347 L81.3975765,37.8886415 L86.1836583,45.3924138 L82.1799668,45.3924138 L78.8789752,39.6254002 Z M97.1338915,31.0480525 L100.342048,31.0480525 L100.342048,45.3923316 L97.1338915,45.3923316 L97.1338915,35.8207157 L91.5128401,45.3923316 L88.3046837,45.3923316 L88.3046837,31.0480525 L91.5128401,31.0480525 L91.5128401,40.6196685 L97.1338915,31.0480525 Z M114.056581,36.7288307 C113.671821,37.2636603 113.130693,37.6900453 112.432375,38.0079855 C114.076298,38.5827973 114.898397,39.6916172 114.898397,41.3355406 C114.898397,42.6524867 114.363567,43.7018811 113.293908,44.4839976 C112.224522,45.2663879 110.793107,45.6574461 108.99884,45.6574461 C107.902891,45.6574461 106.904159,45.4739664 106.002643,45.1072809 C105.101128,44.7405953 104.398702,44.2191843 103.894817,43.5430479 C103.391207,42.8666376 103.139264,42.0645301 103.139264,41.1367252 L106.347421,41.1367252 C106.347421,41.7200264 106.607852,42.2085753 107.129811,42.6015505 C107.650948,42.9950734 108.309558,43.191698 109.10482,43.191698 C109.891592,43.191698 110.516792,43.0082182 110.980694,42.6415327 C111.444597,42.2748471 111.676822,41.7953352 111.676822,41.202997 C111.676822,40.5049526 111.473351,40.001068 111.066957,39.6916172 C110.660289,39.3824402 110.032898,39.2277147 109.18451,39.2277147 L106.877869,39.2277147 L106.877869,36.9076549 L109.2642,36.9076549 C110.704379,36.8901285 111.424879,36.2980642 111.424879,35.131188 C111.424879,34.5478868 111.217027,34.0930215 110.80187,33.7660442 C110.386165,33.4387931 109.816283,33.2753045 109.091675,33.2753045 C108.384593,33.2753045 107.787873,33.4497471 107.301789,33.7989062 C106.815705,34.1480654 106.5728,34.587869 106.5728,35.1180432 L103.364643,35.1180432 C103.364643,33.854224 103.894817,32.8179744 104.95544,32.0092945 C106.016062,31.2006145 107.363679,30.7964115 108.99884,30.7964115 C110.775306,30.7964115 112.158524,31.1587154 113.148219,31.8833233 C114.137914,32.6082051 114.633036,33.6378823 114.633036,34.9723548 C114.633036,35.6085091 114.440793,36.1942749 114.056581,36.7288307 Z M129.785721,45.3923043 L126.56442,45.3923043 L126.56442,39.599001 L120.983077,39.599001 L120.983077,45.3923043 L117.761776,45.3923043 L117.761776,31.0480251 L120.983077,31.0480251 L120.983077,37.0269989 L126.56442,37.0269989 L126.56442,31.0480251 L129.785721,31.0480251 L129.785721,45.3923043 Z M142.167808,31.0480525 L145.376238,31.0480525 L145.376238,45.3923316 L142.167808,45.3923316 L142.167808,35.8207157 L136.54703,45.3923316 L133.338874,45.3923316 L133.338874,31.0480525 L136.54703,31.0480525 L136.54703,40.6196685 L142.167808,31.0480525 Z" id="logo_left"></path>
                </g>
            </g>
        </g>
    </g>
</svg>
